<svg width="512" height="512" viewBox="0 0 512 512" fill="none" xmlns="http://www.w3.org/2000/svg">
<rect width="512" height="512" fill="#1A1A1A"/>
<g clip-path="url(#clip0_942_14489)">
<mask id="mask0_942_14489" style="mask-type:luminance" maskUnits="userSpaceOnUse" x="98" y="98" width="316" height="316">
<path d="M414 98H98V414H414V98Z" fill="white"/>
</mask>
<g mask="url(#mask0_942_14489)">
<path d="M414 97.999L417.212 99.6051L414 106.022V408.921L416.539 411.46L411.461 416.538L408.922 413.999H260.012L259.212 415.605L256 413.999L252.788 415.605L251.988 413.999H104.614L99.9428 417.015L96.0503 410.983L98 409.721V106.029L94.7878 99.6051L98 97.999L100.539 95.4601L103.078 97.999H407.786L411.924 95.0674L414 97.999ZM365.151 370.228C347.805 386.807 326.692 399.476 303.222 406.817H401.741L365.151 370.228ZM115.744 406.817H208.778C190.014 400.948 172.758 391.673 157.727 379.717L115.744 406.817ZM164.123 375.593C187.663 393.704 216.691 405.03 248.292 406.621L216.03 342.09L164.123 375.593ZM263.701 406.621C301.008 404.745 334.739 389.312 360.073 365.15L309.646 314.723L263.701 406.621ZM105.182 405.085L151.955 374.899C130.358 355.985 113.961 331.285 105.182 303.214V405.085ZM406.818 303.214C399.478 326.687 386.81 347.803 370.229 365.15L406.818 401.74V303.214ZM222.097 338.176L252.409 398.786V318.616L222.097 338.176ZM259.591 313.979V398.786L304.295 309.371L289.56 294.636L259.591 313.979ZM105.568 266.772C108.506 308.398 128.336 345.353 158.246 370.838L212.797 335.63L178.375 266.772H105.568ZM313.034 307.955L365.151 360.072C388.648 335.436 403.886 302.857 406.433 266.772H333.625L313.034 307.955ZM218.871 331.717L252.409 310.073V266.772H186.398L218.871 331.717ZM259.591 305.437L284.37 289.446L261.695 266.772H259.591V305.437ZM295.731 290.653L307.683 302.604L322.193 273.575L295.731 290.653ZM290.542 285.462L319.507 266.772H271.85L290.542 285.462ZM130.872 171.774C114.651 195.825 105.182 224.806 105.182 255.999C105.182 257.199 105.196 258.396 105.224 259.59H174.784L130.872 171.774ZM192.219 259.59H252.409V257.486L228.668 233.745L192.219 259.59ZM259.591 211.835V254.512L264.668 259.59H329.193L376.394 165.167C370.404 157.241 363.653 149.924 356.244 143.327L259.591 211.835ZM337.216 259.59H406.776C406.804 258.396 406.818 257.199 406.818 255.999C406.818 224.805 397.343 195.826 381.121 171.774L337.216 259.59ZM146.842 151.919C142.845 156.11 139.097 160.539 135.599 165.167L182.014 258.012L223.52 228.598L146.842 151.919ZM234.616 229.537L252.409 247.331V216.927L234.616 229.537ZM252.409 105.223C213.472 106.133 178.181 121.794 151.92 146.841L229.461 224.383L252.409 208.118V105.223ZM105.182 208.777C110.193 192.754 117.677 177.823 127.204 164.445L105.182 120.393V208.777ZM384.789 164.445C394.317 177.823 401.806 192.753 406.818 208.777V120.386L384.789 164.445ZM259.591 203.033L350.584 138.537C325.58 118.378 294.016 106.027 259.591 105.223V203.033ZM132.029 158.035C135.101 154.153 138.348 150.415 141.764 146.841L111.108 116.185L132.029 158.035ZM362.261 139.07C368.666 144.894 374.586 151.239 379.963 158.035L404.363 109.221L362.261 139.07ZM146.842 141.763C164.188 125.183 185.308 112.522 208.778 105.181H110.26L146.842 141.763ZM303.222 105.181C322.991 111.364 341.089 121.327 356.672 134.224L397.651 105.181H303.222Z" fill="white"/>
</g>
</g>
<defs>
<clipPath id="clip0_942_14489">
<rect width="316" height="316" fill="white" transform="translate(98 98)"/>
</clipPath>
</defs>
</svg>
