<svg width="512" height="512" viewBox="0 0 512 512" fill="none" xmlns="http://www.w3.org/2000/svg">
<rect width="512" height="512" fill="#1A1A1A"/>
<path d="M110.9 60.8226H92.9365C92.4241 57.8767 91.4795 55.2671 90.1026 52.9936C88.7258 50.6881 87.0127 48.7349 84.9634 47.1339C82.9141 45.5329 80.5766 44.3321 77.9509 43.5316C75.3572 42.6991 72.5555 42.2828 69.5455 42.2828C64.1981 42.2828 59.4591 43.6277 55.3285 46.3174C51.1978 48.9751 47.9638 52.8815 45.6263 58.0368C43.2888 63.1601 42.12 69.4201 42.12 76.8168C42.12 84.3416 43.2888 90.6817 45.6263 95.8369C47.9958 100.96 51.2299 104.835 55.3285 107.46C59.4591 110.054 64.1821 111.351 69.4975 111.351C72.4434 111.351 75.1971 110.967 77.7588 110.198C80.3524 109.398 82.6739 108.229 84.7232 106.692C86.8045 105.155 88.5497 103.266 89.9585 101.024C91.3995 98.7828 92.3921 96.2212 92.9365 93.3393L110.9 93.4354C110.227 98.1104 108.771 102.497 106.529 106.596C104.32 110.694 101.422 114.313 97.8356 117.451C94.2493 120.557 90.0546 122.99 85.2516 124.751C80.4485 126.48 75.1171 127.345 69.2574 127.345C60.6118 127.345 52.8949 125.344 46.1066 121.341C39.3183 117.339 33.9709 111.559 30.0644 104.002C26.1579 96.4453 24.2046 87.3835 24.2046 76.8168C24.2046 66.2181 26.1739 57.1563 30.1124 49.6315C34.0509 42.0747 39.4143 36.295 46.2027 32.2924C52.991 28.2899 60.6759 26.2886 69.2574 26.2886C74.7328 26.2886 79.8241 27.0571 84.5311 28.5941C89.2381 30.131 93.4328 32.3885 97.1151 35.3664C100.797 38.3123 103.823 41.9306 106.193 46.2213C108.594 50.48 110.163 55.3471 110.9 60.8226Z" fill="white"/>
<path d="M139.779 82.7726V126H122.392V27.6335H139.395V64.7611H140.26C141.989 60.5985 144.662 57.3164 148.281 54.9148C151.931 52.4813 156.574 51.2645 162.21 51.2645C167.333 51.2645 171.8 52.3372 175.61 54.4826C179.421 56.6279 182.366 59.7659 184.448 63.8966C186.561 68.0272 187.618 73.0704 187.618 79.0262V126H170.231V81.7159C170.231 76.7528 168.95 72.8943 166.388 70.1406C163.859 67.3548 160.304 65.9619 155.725 65.9619C152.651 65.9619 149.898 66.6343 147.464 67.9792C145.063 69.292 143.173 71.1972 141.797 73.6948C140.452 76.1924 139.779 79.2183 139.779 82.7726Z" fill="white"/>
<path d="M201.283 126V52.2251H218.142V64.521H218.911C220.256 60.2623 222.561 56.9802 225.827 54.6747C229.125 52.3372 232.888 51.1685 237.114 51.1685C238.075 51.1685 239.148 51.2165 240.332 51.3125C241.549 51.3766 242.558 51.4887 243.358 51.6488V67.643C242.622 67.3868 241.453 67.1627 239.852 66.9705C238.283 66.7464 236.762 66.6343 235.289 66.6343C232.119 66.6343 229.269 67.3228 226.74 68.6996C224.242 70.0445 222.273 71.9177 220.832 74.3192C219.391 76.7208 218.671 79.4905 218.671 82.6285V126H201.283Z" fill="white"/>
<path d="M250.852 126V52.2251H268.239V126H250.852ZM259.594 41.7545C256.84 41.7545 254.47 40.8419 252.485 39.0167C250.5 37.1595 249.507 34.9341 249.507 32.3404C249.507 29.7148 250.5 27.4894 252.485 25.6642C254.47 23.807 256.84 22.8784 259.594 22.8784C262.379 22.8784 264.749 23.807 266.702 25.6642C268.687 27.4894 269.68 29.7148 269.68 32.3404C269.68 34.9341 268.687 37.1595 266.702 39.0167C264.749 40.8419 262.379 41.7545 259.594 41.7545Z" fill="white"/>
<path d="M340.37 71.7256L324.52 73.4547C324.072 71.8536 323.287 70.3487 322.166 68.9398C321.078 67.5309 319.605 66.3942 317.748 65.5296C315.89 64.6651 313.617 64.2328 310.927 64.2328C307.309 64.2328 304.267 65.0173 301.801 66.5863C299.368 68.1553 298.167 70.1886 298.199 72.6862C298.167 74.8315 298.952 76.5767 300.553 77.9215C302.186 79.2664 304.875 80.3711 308.622 81.2356L321.206 83.9253C328.186 85.4303 333.374 87.8158 336.768 91.0819C340.194 94.348 341.923 98.6227 341.955 103.906C341.923 108.549 340.562 112.648 337.872 116.202C335.215 119.724 331.516 122.478 326.777 124.463C322.038 126.448 316.595 127.441 310.447 127.441C301.417 127.441 294.149 125.552 288.641 121.773C283.134 117.963 279.851 112.664 278.795 105.875L295.75 104.242C296.518 107.572 298.151 110.086 300.649 111.783C303.146 113.48 306.396 114.329 310.399 114.329C314.53 114.329 317.844 113.48 320.341 111.783C322.871 110.086 324.136 107.989 324.136 105.491C324.136 103.378 323.319 101.633 321.686 100.256C320.085 98.8789 317.588 97.8222 314.193 97.0857L301.609 94.4441C294.533 92.9711 289.298 90.4895 285.903 86.9993C282.509 83.4771 280.828 79.0262 280.86 73.6468C280.828 69.0999 282.061 65.1614 284.558 61.8313C287.088 58.4691 290.594 55.8755 295.077 54.0503C299.592 52.1931 304.795 51.2645 310.687 51.2645C319.333 51.2645 326.137 53.1057 331.1 56.788C336.095 60.4704 339.185 65.4496 340.37 71.7256Z" fill="white"/>
<path d="M389.074 52.2251V65.6737H346.663V52.2251H389.074ZM357.134 34.5499H374.521V103.81C374.521 106.148 374.873 107.941 375.577 109.189C376.314 110.406 377.275 111.239 378.459 111.687C379.644 112.135 380.957 112.359 382.398 112.359C383.486 112.359 384.479 112.279 385.376 112.119C386.304 111.959 387.009 111.815 387.489 111.687L390.419 125.28C389.49 125.6 388.161 125.952 386.432 126.336C384.735 126.721 382.654 126.945 380.188 127.009C375.834 127.137 371.911 126.48 368.421 125.04C364.931 123.567 362.161 121.293 360.112 118.219C358.094 115.145 357.102 111.303 357.134 106.692V34.5499Z" fill="white"/>
<path d="M430.946 127.441C423.741 127.441 417.497 125.856 412.214 122.686C406.93 119.516 402.832 115.081 399.918 109.382C397.036 103.682 395.595 97.0217 395.595 89.4008C395.595 81.78 397.036 75.1037 399.918 69.3721C402.832 63.6404 406.93 59.1896 412.214 56.0196C417.497 52.8495 423.741 51.2645 430.946 51.2645C438.15 51.2645 444.394 52.8495 449.678 56.0196C454.961 59.1896 459.044 63.6404 461.925 69.3721C464.839 75.1037 466.296 81.78 466.296 89.4008C466.296 97.0217 464.839 103.682 461.925 109.382C459.044 115.081 454.961 119.516 449.678 122.686C444.394 125.856 438.15 127.441 430.946 127.441ZM431.042 113.512C434.948 113.512 438.214 112.44 440.84 110.294C443.466 108.117 445.419 105.203 446.7 101.553C448.013 97.9023 448.669 93.8357 448.669 89.3528C448.669 84.8379 448.013 80.7553 446.7 77.105C445.419 73.4226 443.466 70.4928 440.84 68.3154C438.214 66.138 434.948 65.0493 431.042 65.0493C427.039 65.0493 423.709 66.138 421.051 68.3154C418.426 70.4928 416.456 73.4226 415.144 77.105C413.863 80.7553 413.222 84.8379 413.222 89.3528C413.222 93.8357 413.863 97.9023 415.144 101.553C416.456 105.203 418.426 108.117 421.051 110.294C423.709 112.44 427.039 113.512 431.042 113.512Z" fill="white"/>
<path d="M213.185 270.666V169.225H230.284V181.425H231.293C232.189 179.632 233.454 177.727 235.087 175.709C236.72 173.66 238.93 171.915 241.715 170.474C244.501 169.001 248.055 168.265 252.378 168.265C258.078 168.265 263.217 169.721 267.796 172.635C272.407 175.517 276.057 179.792 278.747 185.459C281.469 191.095 282.83 198.011 282.83 206.209C282.83 214.31 281.501 221.194 278.843 226.862C276.185 232.529 272.567 236.852 267.988 239.83C263.409 242.808 258.222 244.297 252.426 244.297C248.199 244.297 244.693 243.593 241.907 242.184C239.122 240.775 236.88 239.078 235.183 237.092C233.518 235.075 232.221 233.17 231.293 231.377H230.572V270.666H213.185ZM230.236 206.113C230.236 210.884 230.908 215.062 232.253 218.649C233.63 222.235 235.599 225.037 238.161 227.054C240.755 229.039 243.893 230.032 247.575 230.032C251.418 230.032 254.636 229.007 257.229 226.958C259.823 224.877 261.776 222.043 263.089 218.457C264.434 214.838 265.106 210.724 265.106 206.113C265.106 201.534 264.45 197.467 263.137 193.913C261.824 190.359 259.871 187.573 257.277 185.556C254.684 183.538 251.45 182.53 247.575 182.53C243.861 182.53 240.707 183.506 238.113 185.459C235.519 187.413 233.55 190.15 232.205 193.673C230.892 197.195 230.236 201.342 230.236 206.113Z" fill="white"/>
<path d="M311.049 199.773V243H293.661V144.633H310.664V181.761H311.529C313.258 177.598 315.932 174.316 319.55 171.915C323.2 169.481 327.843 168.265 333.479 168.265C338.602 168.265 343.069 169.337 346.879 171.483C350.69 173.628 353.636 176.766 355.717 180.897C357.83 185.027 358.887 190.07 358.887 196.026V243H341.5V198.716C341.5 193.753 340.219 189.894 337.658 187.141C335.128 184.355 331.574 182.962 326.995 182.962C323.921 182.962 321.167 183.634 318.733 184.979C316.332 186.292 314.443 188.197 313.066 190.695C311.721 193.192 311.049 196.218 311.049 199.773Z" fill="white"/>
<path d="M405.214 244.441C397.817 244.441 391.429 242.904 386.049 239.83C380.702 236.724 376.587 232.337 373.705 226.67C370.824 220.97 369.383 214.262 369.383 206.545C369.383 198.956 370.824 192.296 373.705 186.564C376.619 180.801 380.686 176.318 385.905 173.116C391.125 169.882 397.256 168.265 404.301 168.265C408.848 168.265 413.139 169.001 417.173 170.474C421.24 171.915 424.826 174.156 427.932 177.198C431.07 180.24 433.536 184.115 435.329 188.822C437.122 193.497 438.018 199.068 438.018 205.536V210.868H377.548V199.148H421.352C421.32 195.818 420.599 192.856 419.19 190.263C417.782 187.637 415.812 185.572 413.283 184.067C410.785 182.562 407.871 181.809 404.541 181.809C400.987 181.809 397.865 182.674 395.175 184.403C392.485 186.1 390.388 188.341 388.883 191.127C387.41 193.881 386.658 196.907 386.626 200.205V210.435C386.626 214.726 387.41 218.408 388.979 221.482C390.548 224.524 392.742 226.862 395.559 228.495C398.377 230.096 401.675 230.896 405.454 230.896C407.983 230.896 410.273 230.544 412.322 229.84C414.371 229.103 416.149 228.031 417.653 226.622C419.158 225.213 420.295 223.468 421.064 221.386L437.298 223.212C436.273 227.502 434.32 231.249 431.438 234.451C428.588 237.621 424.938 240.086 420.487 241.847C416.036 243.577 410.945 244.441 405.214 244.441Z" fill="white"/>
<path d="M448.67 243V169.225H465.529V181.521H466.297C467.642 177.262 469.948 173.98 473.214 171.675C476.512 169.337 480.274 168.168 484.501 168.168C485.462 168.168 486.534 168.216 487.719 168.313C488.936 168.377 489.945 168.489 490.745 168.649V184.643C490.009 184.387 488.84 184.163 487.239 183.971C485.67 183.746 484.149 183.634 482.676 183.634C479.506 183.634 476.656 184.323 474.126 185.7C471.629 187.044 469.66 188.918 468.219 191.319C466.778 193.721 466.057 196.491 466.057 199.629V243H448.67Z" fill="white"/>
<path d="M80.1603 287.675C79.712 283.48 77.8228 280.214 74.4927 277.876C71.1946 275.539 66.9039 274.37 61.6205 274.37C57.9061 274.37 54.7201 274.931 52.0624 276.051C49.4047 277.172 47.3714 278.693 45.9625 280.614C44.5536 282.535 43.8331 284.729 43.8011 287.194C43.8011 289.244 44.2654 291.021 45.194 292.526C46.1546 294.031 47.4514 295.312 49.0845 296.368C50.7175 297.393 52.5267 298.257 54.5119 298.962C56.4972 299.666 58.4985 300.259 60.5158 300.739L69.7377 303.044C73.452 303.909 77.0223 305.078 80.4485 306.551C83.9067 308.024 86.9967 309.881 89.7184 312.122C92.4722 314.364 94.6495 317.069 96.2506 320.239C97.8516 323.409 98.6521 327.124 98.6521 331.383C98.6521 337.146 97.1792 342.221 94.2333 346.608C91.2874 350.963 87.0287 354.373 81.4571 356.839C75.9176 359.272 69.2093 360.489 61.3323 360.489C53.6794 360.489 47.0352 359.304 41.3996 356.935C35.796 354.565 31.4092 351.107 28.2392 346.56C25.1012 342.013 23.4041 336.474 23.1479 329.942H40.6791C40.9353 333.368 41.992 336.218 43.8491 338.491C45.7063 340.765 48.1239 342.462 51.1018 343.582C54.1117 344.703 57.4738 345.263 61.1882 345.263C65.0627 345.263 68.4568 344.687 71.3707 343.534C74.3166 342.35 76.622 340.717 78.2871 338.635C79.9522 336.522 80.8007 334.056 80.8327 331.238C80.8007 328.677 80.0482 326.563 78.5753 324.898C77.1024 323.201 75.037 321.792 72.3793 320.672C69.7537 319.519 66.6797 318.494 63.1575 317.598L51.9663 314.716C43.8652 312.635 37.4611 309.481 32.7541 305.254C28.0791 300.995 25.7416 295.344 25.7416 288.299C25.7416 282.503 27.3106 277.428 30.4486 273.073C33.6186 268.719 37.9254 265.34 43.3688 262.939C48.8123 260.505 54.9762 259.289 61.8606 259.289C68.8411 259.289 74.957 260.505 80.2083 262.939C85.4917 265.34 89.6384 268.687 92.6483 272.977C95.6582 277.236 97.2112 282.135 97.3072 287.675H80.1603Z" fill="white"/>
<path d="M130.942 360.489C126.267 360.489 122.056 359.657 118.31 357.992C114.595 356.294 111.649 353.797 109.472 350.499C107.327 347.201 106.254 343.134 106.254 338.299C106.254 334.136 107.022 330.694 108.559 327.972C110.096 325.251 112.194 323.073 114.851 321.44C117.509 319.807 120.503 318.574 123.833 317.742C127.195 316.877 130.669 316.253 134.256 315.869C138.579 315.42 142.085 315.02 144.774 314.668C147.464 314.284 149.417 313.707 150.634 312.939C151.883 312.138 152.507 310.906 152.507 309.24V308.952C152.507 305.334 151.435 302.532 149.289 300.547C147.144 298.562 144.054 297.569 140.019 297.569C135.761 297.569 132.383 298.498 129.885 300.355C127.419 302.212 125.754 304.405 124.89 306.935L108.655 304.63C109.936 300.147 112.05 296.4 114.995 293.39C117.941 290.348 121.544 288.075 125.802 286.57C130.061 285.033 134.768 284.265 139.923 284.265C143.478 284.265 147.016 284.681 150.538 285.513C154.06 286.346 157.278 287.723 160.192 289.644C163.106 291.533 165.444 294.111 167.205 297.377C168.998 300.643 169.894 304.726 169.894 309.625V359H153.18V348.866H152.603C151.547 350.915 150.058 352.836 148.137 354.629C146.247 356.391 143.862 357.815 140.98 358.904C138.13 359.961 134.784 360.489 130.942 360.489ZM135.457 347.713C138.947 347.713 141.973 347.025 144.534 345.648C147.096 344.239 149.065 342.382 150.442 340.076C151.851 337.771 152.555 335.257 152.555 332.535V323.842C152.011 324.29 151.082 324.706 149.77 325.091C148.489 325.475 147.048 325.811 145.447 326.099C143.846 326.387 142.261 326.644 140.692 326.868C139.123 327.092 137.762 327.284 136.609 327.444C134.016 327.796 131.694 328.373 129.645 329.173C127.596 329.974 125.978 331.094 124.794 332.535C123.609 333.944 123.017 335.769 123.017 338.011C123.017 341.213 124.185 343.63 126.523 345.263C128.86 346.896 131.838 347.713 135.457 347.713Z" fill="white"/>
<path d="M242.304 359V285.225H258.922V297.761H259.787C261.324 293.534 263.869 290.236 267.424 287.867C270.978 285.465 275.22 284.265 280.152 284.265C285.147 284.265 289.358 285.481 292.784 287.915C296.242 290.316 298.675 293.598 300.084 297.761H300.853C302.486 293.663 305.24 290.396 309.114 287.963C313.021 285.497 317.648 284.265 322.995 284.265C329.783 284.265 335.323 286.41 339.614 290.701C343.904 294.991 346.05 301.251 346.05 309.481V359H328.615V312.17C328.615 307.591 327.398 304.245 324.964 302.132C322.531 299.987 319.553 298.914 316.031 298.914C311.836 298.914 308.554 300.227 306.184 302.852C303.847 305.446 302.678 308.824 302.678 312.987V359H285.627V311.45C285.627 307.639 284.474 304.597 282.169 302.324C279.895 300.051 276.918 298.914 273.235 298.914C270.738 298.914 268.464 299.554 266.415 300.835C264.366 302.084 262.733 303.861 261.516 306.166C260.299 308.44 259.691 311.098 259.691 314.14V359H242.304Z" fill="white"/>
<path d="M391.812 360.441C384.607 360.441 378.363 358.856 373.08 355.686C367.796 352.516 363.698 348.081 360.784 342.382C357.902 336.682 356.461 330.022 356.461 322.401C356.461 314.78 357.902 308.104 360.784 302.372C363.698 296.64 367.796 292.19 373.08 289.02C378.363 285.85 384.607 284.265 391.812 284.265C399.016 284.265 405.26 285.85 410.544 289.02C415.827 292.19 419.91 296.64 422.792 302.372C425.705 308.104 427.162 314.78 427.162 322.401C427.162 330.022 425.705 336.682 422.792 342.382C419.91 348.081 415.827 352.516 410.544 355.686C405.26 358.856 399.016 360.441 391.812 360.441ZM391.908 346.512C395.814 346.512 399.08 345.44 401.706 343.294C404.332 341.117 406.285 338.203 407.566 334.553C408.879 330.902 409.535 326.836 409.535 322.353C409.535 317.838 408.879 313.755 407.566 310.105C406.285 306.423 404.332 303.493 401.706 301.315C399.08 299.138 395.814 298.049 391.908 298.049C387.905 298.049 384.575 299.138 381.918 301.315C379.292 303.493 377.323 306.423 376.01 310.105C374.729 313.755 374.089 317.838 374.089 322.353C374.089 326.836 374.729 330.902 376.01 334.553C377.323 338.203 379.292 341.117 381.918 343.294C384.575 345.44 387.905 346.512 391.908 346.512Z" fill="white"/>
<path d="M55.4255 476V402.225H72.8126V476H55.4255ZM64.1671 391.754C61.4133 391.754 59.0438 390.842 57.0585 389.017C55.0733 387.16 54.0806 384.934 54.0806 382.34C54.0806 379.715 55.0733 377.489 57.0585 375.664C59.0438 373.807 61.4133 372.878 64.1671 372.878C66.9528 372.878 69.3224 373.807 71.2756 375.664C73.2609 377.489 74.2535 379.715 74.2535 382.34C74.2535 384.934 73.2609 387.16 71.2756 389.017C69.3224 390.842 66.9528 391.754 64.1671 391.754Z" fill="white"/>
<path d="M331.233 377.633V476H313.846V377.633H331.233Z" fill="white"/>
<path d="M377.235 477.441C370.03 477.441 363.786 475.856 358.503 472.686C353.22 469.516 349.121 465.081 346.207 459.382C343.325 453.682 341.885 447.022 341.885 439.401C341.885 431.78 343.325 425.104 346.207 419.372C349.121 413.64 353.22 409.19 358.503 406.02C363.786 402.85 370.03 401.265 377.235 401.265C384.44 401.265 390.684 402.85 395.967 406.02C401.25 409.19 405.333 413.64 408.215 419.372C411.129 425.104 412.586 431.78 412.586 439.401C412.586 447.022 411.129 453.682 408.215 459.382C405.333 465.081 401.25 469.516 395.967 472.686C390.684 475.856 384.44 477.441 377.235 477.441ZM377.331 463.512C381.238 463.512 384.504 462.44 387.129 460.294C389.755 458.117 391.708 455.203 392.989 451.553C394.302 447.902 394.958 443.836 394.958 439.353C394.958 434.838 394.302 430.755 392.989 427.105C391.708 423.423 389.755 420.493 387.129 418.315C384.504 416.138 381.238 415.049 377.331 415.049C373.329 415.049 369.998 416.138 367.341 418.315C364.715 420.493 362.746 423.423 361.433 427.105C360.152 430.755 359.512 434.838 359.512 439.353C359.512 443.836 360.152 447.902 361.433 451.553C362.746 455.203 364.715 458.117 367.341 460.294C369.998 462.44 373.329 463.512 377.331 463.512Z" fill="white"/>
<path d="M486.674 402.225L460.401 476H441.189L414.916 402.225H433.456L450.411 457.028H451.179L468.182 402.225H486.674Z" fill="white"/>
</svg>
