<svg width="92" height="92" viewBox="0 0 92 92" fill="none" xmlns="http://www.w3.org/2000/svg">
<g clip-path="url(#clip0_34_11)">
<rect width="92" height="92" fill="white"/>
<path d="M53.424 37.0358H45.4177C45.1097 35.325 44.5366 33.8196 43.6983 32.5194C42.8601 31.2192 41.8336 30.1158 40.619 29.209C39.4043 28.3023 38.0443 27.618 36.5388 27.1561C35.0504 26.6942 33.468 26.4633 31.7914 26.4633C28.7633 26.4633 26.0518 27.2246 23.6567 28.7471C21.2787 30.2697 19.3969 32.5023 18.0112 35.4448C16.6426 38.3873 15.9583 41.9799 15.9583 46.2226C15.9583 50.4995 16.6426 54.1093 18.0112 57.0518C19.3969 59.9943 21.2873 62.2183 23.6824 63.7238C26.0774 65.2292 28.7719 65.982 31.7657 65.982C33.4252 65.982 34.9991 65.7596 36.4875 65.3148C37.9929 64.8529 39.353 64.1771 40.5676 63.2875C41.7823 62.3979 42.8087 61.3116 43.647 60.0285C44.5024 58.7283 45.0926 57.24 45.4177 55.5634L53.424 55.5891C52.9964 58.1723 52.1666 60.5503 50.9349 62.723C49.7202 64.8785 48.1549 66.7433 46.2388 68.3172C44.3399 69.874 42.1672 71.0801 39.7208 71.9354C37.2744 72.7908 34.6056 73.2185 31.7144 73.2185C27.1638 73.2185 23.1093 72.1407 19.5509 69.9852C15.9925 67.8125 13.1868 64.7075 11.1339 60.67C9.09808 56.6326 8.08018 51.8168 8.08018 46.2226C8.08018 40.6113 9.10664 35.7955 11.1596 31.7752C13.2125 27.7378 16.0181 24.6413 19.5765 22.4857C23.1349 20.3131 27.1809 19.2267 31.7144 19.2267C34.503 19.2267 37.1033 19.6288 39.5155 20.4328C41.9448 21.2198 44.126 22.3831 46.0592 23.9228C47.9924 25.4454 49.5919 27.3101 50.8579 29.517C52.1239 31.7068 52.9792 34.213 53.424 37.0358Z" fill="black"/>
<path d="M77.9052 28.0838L75.4691 28.7732C75.3159 28.3672 75.0899 27.9727 74.7911 27.5896C74.5 27.1989 74.1016 26.8772 73.596 26.6244C73.0904 26.3716 72.4431 26.2452 71.654 26.2452C70.5738 26.2452 69.6737 26.4941 68.9536 26.9921C68.2411 27.4824 67.8849 28.1067 67.8849 28.8652C67.8849 29.5393 68.1301 30.0717 68.6203 30.4624C69.1106 30.8531 69.8767 31.1787 70.9186 31.4392L73.5386 32.0827C75.1167 32.4657 76.2926 33.0518 77.0664 33.8408C77.8401 34.6222 78.227 35.6296 78.227 36.863C78.227 37.8742 77.9359 38.7782 77.3536 39.5749C76.7791 40.3717 75.9747 40.9998 74.9405 41.4595C73.9063 41.9191 72.7035 42.149 71.3323 42.149C69.532 42.149 68.042 41.7583 66.8622 40.9769C65.6824 40.1955 64.9355 39.054 64.6214 37.5525L67.1954 36.909C67.4406 37.8589 67.9041 38.5714 68.5859 39.0463C69.2753 39.5213 70.1755 39.7588 71.2863 39.7588C72.5503 39.7588 73.5539 39.4907 74.297 38.9544C75.0477 38.4105 75.4231 37.7593 75.4231 37.0009C75.4231 36.3881 75.2086 35.8748 74.7796 35.4611C74.3506 35.0398 73.6918 34.7257 72.8031 34.5188L69.8614 33.8294C68.245 33.4463 67.0575 32.8526 66.2991 32.0482C65.5484 31.2362 65.173 30.2211 65.173 29.0031C65.173 28.0072 65.4526 27.1262 66.0118 26.3601C66.5787 25.594 67.3487 24.9926 68.3216 24.556C69.3022 24.1193 70.413 23.901 71.654 23.901C73.4007 23.901 74.772 24.284 75.7679 25.0501C76.7714 25.8162 77.4839 26.8274 77.9052 28.0838Z" fill="black"/>
<circle cx="71.3819" cy="33.0134" r="13.2313" stroke="black" stroke-width="2.3011"/>
</g>
<defs>
<clipPath id="clip0_34_11">
<rect width="92" height="92" fill="white"/>
</clipPath>
</defs>
</svg>
