<svg width="512" height="512" viewBox="0 0 512 512" fill="none" xmlns="http://www.w3.org/2000/svg">
<rect width="512" height="512" rx="112" fill="#1A1A1A"/>
<g clip-path="url(#clip0_942_14489)">
<mask id="mask0_942_14489" style="mask-type:luminance" maskUnits="userSpaceOnUse" x="53" y="53" width="406" height="406">
<path d="M459 53H53V459H459V53Z" fill="white"/>
</mask>
<g mask="url(#mask0_942_14489)">
<path d="M459 52.999L463.127 55.0625L459 63.3076V452.475L462.262 455.737L455.738 462.261L452.476 458.999H261.154L260.127 461.062L256 458.999L251.873 461.062L250.846 458.999H61.4974L55.4961 462.874L50.495 455.125L53 453.502V63.3166L48.873 55.0625L53 52.999L56.262 49.737L59.524 52.999H451.017L456.332 49.2324L459 52.999ZM396.238 402.762C373.952 424.063 346.826 440.34 316.671 449.772H443.249L396.238 402.762ZM75.7979 449.772H195.329C171.221 442.231 149.049 430.314 129.738 414.954L75.7979 449.772ZM137.956 409.654C168.2 432.924 205.495 447.475 246.097 449.52L204.647 366.609L137.956 409.654ZM265.894 449.52C313.826 447.109 357.165 427.281 389.714 396.237L324.925 331.449L265.894 449.52ZM62.2273 447.546L122.322 408.763C94.5738 384.462 73.5063 352.727 62.2273 316.661V447.546ZM449.773 316.661C440.342 346.819 424.066 373.949 402.763 396.237L449.773 443.248V316.661ZM212.441 361.581L251.386 439.454V336.45L212.441 361.581ZM260.614 330.493V439.454L318.05 324.572L299.118 305.641L260.614 330.493ZM62.7229 269.84C66.4976 323.322 91.9762 370.802 130.405 403.545L200.492 358.31L156.266 269.84H62.7229ZM329.277 322.753L396.238 389.713C426.428 358.06 446.005 316.202 449.277 269.84H355.734L329.277 322.753ZM208.296 353.282L251.386 325.474V269.84H166.575L208.296 353.282ZM260.614 319.518L292.45 298.972L263.317 269.84H260.614V319.518ZM307.047 300.522L322.402 315.878L341.046 278.581L307.047 300.522ZM300.38 293.854L337.595 269.84H276.365L300.38 293.854ZM95.2346 147.786C74.3936 178.687 62.2273 215.922 62.2273 255.999C62.2273 257.541 62.2456 259.079 62.2814 260.613H151.652L95.2346 147.786ZM174.054 260.613H251.386V257.909L220.884 227.407L174.054 260.613ZM260.614 199.257V254.089L267.137 260.613H350.039L410.683 139.297C402.988 129.113 394.314 119.713 384.794 111.237L260.614 199.257ZM360.348 260.613H449.718C449.754 259.079 449.773 257.541 449.773 255.999C449.773 215.92 437.599 178.688 416.757 147.786L360.348 260.613ZM115.753 122.276C110.617 127.66 105.802 133.35 101.308 139.297L160.943 258.585L214.27 220.793L115.753 122.276ZM228.526 222L251.386 244.862V205.799L228.526 222ZM251.386 62.2804C201.36 63.4493 156.017 83.5712 122.277 115.752L221.902 215.378L251.386 194.481V62.2804ZM62.2273 195.328C68.6663 174.742 78.2817 155.557 90.5219 138.369L62.2273 81.7711V195.328ZM421.469 138.369C433.711 155.558 443.333 174.74 449.773 195.328V81.7622L421.469 138.369ZM260.614 187.948L377.522 105.083C345.398 79.1818 304.844 63.3138 260.614 62.2804V187.948ZM96.7214 130.133C100.668 125.146 104.839 120.344 109.229 115.752L69.8416 76.3646L96.7214 130.133ZM392.526 105.767C400.755 113.25 408.361 121.403 415.269 130.133L446.619 67.4166L392.526 105.767ZM115.753 109.228C138.039 87.9259 165.174 71.6581 195.329 62.2263H68.7513L115.753 109.228ZM316.671 62.2263C342.071 70.171 365.323 82.971 385.344 99.5409L437.995 62.2263H316.671Z" fill="white"/>
</g>
</g>
<defs>
<clipPath id="clip0_942_14489">
<rect width="406" height="406" fill="white" transform="translate(53 53)"/>
</clipPath>
</defs>
</svg>
