<svg width="92" height="92" viewBox="0 0 92 92" fill="none" xmlns="http://www.w3.org/2000/svg">
<g clip-path="url(#clip0_34_11)">
<rect width="92" height="92" fill="#1a1a1a"/>
<path d="M53.424 37.0358H45.4177C45.1097 35.325 44.5366 33.8196 43.6983 32.5194C42.8601 31.2192 41.8336 30.1158 40.619 29.209C39.4043 28.3023 38.0443 27.618 36.5388 27.1561C35.0504 26.6942 33.468 26.4633 31.7914 26.4633C28.7633 26.4633 26.0518 27.2246 23.6567 28.7471C21.2787 30.2697 19.3969 32.5023 18.0112 35.4448C16.6426 38.3873 15.9583 41.9799 15.9583 46.2226C15.9583 50.4995 16.6426 54.1093 18.0112 57.0518C19.3969 59.9943 21.2873 62.2183 23.6824 63.7238C26.0774 65.2292 28.7719 65.982 31.7657 65.982C33.4252 65.982 34.9991 65.7596 36.4875 65.3148C37.9929 64.8529 39.353 64.1771 40.5676 63.2875C41.7823 62.3979 42.8087 61.3116 43.647 60.0285C44.5024 58.7283 45.0926 57.24 45.4177 55.5634L53.424 55.5891C52.9964 58.1723 52.1666 60.5503 50.9349 62.723C49.7202 64.8785 48.1549 66.7433 46.2388 68.3172C44.3399 69.874 42.1672 71.0801 39.7208 71.9354C37.2744 72.7908 34.6056 73.2185 31.7144 73.2185C27.1638 73.2185 23.1093 72.1407 19.5509 69.9852C15.9925 67.8125 13.1868 64.7075 11.1339 60.67C9.09808 56.6326 8.08018 51.8168 8.08018 46.2226C8.08018 40.6113 9.10664 35.7955 11.1596 31.7752C13.2125 27.7378 16.0181 24.6413 19.5765 22.4857C23.1349 20.3131 27.1809 19.2267 31.7144 19.2267C34.503 19.2267 37.1033 19.6288 39.5155 20.4328C41.9448 21.2198 44.126 22.3831 46.0592 23.9228C47.9924 25.4454 49.5919 27.3101 50.8579 29.517C52.1239 31.7068 52.9792 34.213 53.424 37.0358Z" fill="white"/>
<path d="M77.9052 24.3025L75.4691 24.992C75.3159 24.586 75.0899 24.1914 74.7911 23.8084C74.5 23.4177 74.1016 23.0959 73.596 22.8431C73.0904 22.5903 72.4431 22.4639 71.654 22.4639C70.5738 22.4639 69.6737 22.7129 68.9536 23.2109C68.2411 23.7011 67.8849 24.3255 67.8849 25.0839C67.8849 25.7581 68.1301 26.2905 68.6203 26.6812C69.1106 27.0719 69.8767 27.3975 70.9186 27.6579L73.5386 28.3014C75.1167 28.6845 76.2926 29.2705 77.0664 30.0596C77.8401 30.841 78.227 31.8484 78.227 33.0818C78.227 34.093 77.9359 34.997 77.3536 35.7937C76.7791 36.5904 75.9747 37.2186 74.9405 37.6782C73.9063 38.1379 72.7035 38.3677 71.3323 38.3677C69.532 38.3677 68.042 37.977 66.8622 37.1956C65.6824 36.4142 64.9355 35.2728 64.6214 33.7712L67.1954 33.1277C67.4406 34.0777 67.9041 34.7901 68.5859 35.2651C69.2753 35.7401 70.1755 35.9776 71.2863 35.9776C72.5503 35.9776 73.5539 35.7094 74.297 35.1732C75.0477 34.6293 75.4231 33.9781 75.4231 33.2197C75.4231 32.6068 75.2086 32.0935 74.7796 31.6799C74.3506 31.2585 73.6918 30.9444 72.8031 30.7376L69.8614 30.0481C68.245 29.6651 67.0575 29.0714 66.2991 28.267C65.5484 27.4549 65.173 26.4399 65.173 25.2218C65.173 24.2259 65.4526 23.3449 66.0118 22.5788C66.5787 21.8128 67.3487 21.2114 68.3216 20.7747C69.3022 20.3381 70.413 20.1197 71.654 20.1197C73.4007 20.1197 74.772 20.5028 75.7679 21.2688C76.7714 22.0349 77.4839 23.0461 77.9052 24.3025Z" fill="white"/>
<circle cx="71.3819" cy="29.2322" r="13.2313" stroke="white" stroke-width="2.3011"/>
</g>
<defs>
<clipPath id="clip0_34_11">
<rect width="92" height="92" fill="white"/>
</clipPath>
</defs>
</svg>
