<svg width="92" height="92" viewBox="0 0 92 92" fill="none" xmlns="http://www.w3.org/2000/svg">
<rect width="92" height="92" fill="white"/>
<path d="M52.2069 39.9969H45.2076C44.9384 38.5014 44.4374 37.1853 43.7046 36.0486C42.9718 34.912 42.0744 33.9474 41.0126 33.1547C39.9507 32.3621 38.7617 31.7639 37.4456 31.36C36.1445 30.9562 34.7611 30.7543 33.2955 30.7543C30.6483 30.7543 28.2778 31.4199 26.184 32.7509C24.1052 34.082 22.4601 36.0337 21.2487 38.6061C20.0522 41.1784 19.454 44.3191 19.454 48.0281C19.454 51.767 20.0522 54.9227 21.2487 57.495C22.4601 60.0674 24.1127 62.0117 26.2065 63.3278C28.3003 64.6438 30.6558 65.3019 33.273 65.3019C34.7237 65.3019 36.0996 65.1075 37.4008 64.7186C38.7169 64.3148 39.9059 63.7241 40.9677 62.9464C42.0296 62.1687 42.9269 61.219 43.6597 60.0973C44.4075 58.9607 44.9235 57.6596 45.2076 56.1939L52.2069 56.2163C51.833 58.4746 51.1076 60.5535 50.0308 62.4528C48.969 64.3373 47.6005 65.9674 45.9255 67.3433C44.2654 68.7043 42.3661 69.7587 40.2274 70.5065C38.0887 71.2542 35.7557 71.6281 33.2282 71.6281C29.25 71.6281 25.7055 70.6859 22.5947 68.8015C19.4839 66.9022 17.0312 64.1877 15.2365 60.6582C13.4568 57.1286 12.5669 52.9186 12.5669 48.0281C12.5669 43.1227 13.4643 38.9127 15.2589 35.3981C17.0536 31.8685 19.5063 29.1616 22.6171 27.2772C25.7279 25.3778 29.2649 24.4281 33.2282 24.4281C35.6659 24.4281 37.9392 24.7796 40.0479 25.4825C42.1716 26.1704 44.0785 27.1874 45.7685 28.5334C47.4585 29.8645 48.8568 31.4947 49.9635 33.4239C51.0702 35.3383 51.818 37.5293 52.2069 39.9969Z" fill="black"/>
<path d="M76.6324 34.0348L74.4396 34.6554C74.3017 34.2899 74.0982 33.9348 73.8293 33.59C73.5673 33.2384 73.2087 32.9487 72.7536 32.7212C72.2985 32.4936 71.7158 32.3799 71.0056 32.3799C70.0333 32.3799 69.2231 32.604 68.5749 33.0522C67.9336 33.4935 67.613 34.0555 67.613 34.7381C67.613 35.3449 67.8336 35.8242 68.275 36.1759C68.7163 36.5275 69.4058 36.8206 70.3436 37.055L72.7019 37.6343C74.1224 37.979 75.1808 38.5066 75.8773 39.2168C76.5737 39.9201 76.922 40.8269 76.922 41.9371C76.922 42.8473 76.6599 43.661 76.1359 44.3781C75.6187 45.0952 74.8947 45.6607 73.9638 46.0744C73.0329 46.4881 71.9503 46.695 70.716 46.695C69.0955 46.695 67.7543 46.3433 66.6924 45.64C65.6305 44.9366 64.9582 43.9092 64.6755 42.5577L66.9924 41.9785C67.213 42.8335 67.6302 43.4748 68.2439 43.9023C68.8645 44.3298 69.6748 44.5436 70.6746 44.5436C71.8124 44.5436 72.7157 44.3022 73.3846 43.8196C74.0603 43.33 74.3982 42.7439 74.3982 42.0612C74.3982 41.5096 74.2051 41.0476 73.819 40.6752C73.4328 40.2959 72.8398 40.0132 72.0399 39.827L69.392 39.2064C67.9371 38.8617 66.8683 38.3273 66.1856 37.6032C65.5099 36.8723 65.172 35.9587 65.172 34.8623C65.172 33.9658 65.4237 33.1729 65.927 32.4833C66.4373 31.7937 67.1303 31.2524 68.006 30.8594C68.8887 30.4664 69.8885 30.2698 71.0056 30.2698C72.5778 30.2698 73.8121 30.6146 74.7085 31.3042C75.6118 31.9937 76.2531 32.9039 76.6324 34.0348Z" fill="black"/>
<circle cx="70.9119" cy="38.4794" r="11.9096" stroke="black" stroke-width="2.07123"/>
</svg>
